<svg width="1089" height="618" viewBox="0 0 1089 618" fill="none" xmlns="http://www.w3.org/2000/svg">
<path d="M544.097 482.351C779.147 482.351 969.693 469.736 969.693 454.175C969.693 438.615 779.147 426 544.097 426C309.046 426 118.5 438.615 118.5 454.175C118.5 469.736 309.046 482.351 544.097 482.351Z" fill="#F2F2F2"/>
<path d="M533.545 134.747C464.204 134.747 414.418 179.234 414.418 283.038C414.418 400.683 464.204 431.824 533.545 431.824C602.887 431.824 655.639 397.717 655.639 283.038C655.639 160.45 602.887 134.747 533.545 134.747ZM534.001 392.774C485.974 392.774 460.883 364.597 460.883 283.114C460.883 211.217 487.001 173.302 535.028 173.302C583.056 173.302 609.174 198.207 609.174 283.114C609.174 362.543 582.029 392.774 534.001 392.774Z" fill="#2F2E41"/>
<path d="M372.898 349.769H344.228V265.344C344.228 260.86 342.447 256.56 339.276 253.389C336.105 250.218 331.805 248.437 327.32 248.437H320.603C318.382 248.437 316.184 248.874 314.132 249.724C312.081 250.574 310.217 251.819 308.647 253.389C307.077 254.959 305.832 256.823 304.982 258.874C304.132 260.925 303.695 263.124 303.695 265.344V349.769H222.828C221.164 349.769 219.529 349.339 218.08 348.521C216.632 347.703 215.419 346.524 214.56 345.099C213.702 343.674 213.226 342.052 213.179 340.389C213.132 338.726 213.516 337.079 214.293 335.608L299.882 173.615C300.95 171.595 301.596 169.38 301.784 167.104C301.971 164.827 301.695 162.536 300.973 160.369C300.251 158.202 299.097 156.204 297.581 154.496C296.065 152.787 294.218 151.403 292.153 150.428L287.1 148.042C283.177 146.189 278.692 145.916 274.573 147.278C270.453 148.64 267.015 151.533 264.97 155.36L160.583 350.636C158.805 353.961 157.875 357.674 157.875 361.444C157.875 364.455 158.468 367.436 159.62 370.218C160.772 372.999 162.461 375.527 164.59 377.656C166.719 379.785 169.246 381.473 172.028 382.625C174.809 383.778 177.791 384.371 180.801 384.371H303.695V437.756C303.695 440.417 304.219 443.052 305.238 445.511C306.256 447.97 307.749 450.204 309.631 452.086C311.513 453.968 313.747 455.461 316.206 456.479C318.665 457.498 321.3 458.022 323.961 458.022C326.623 458.022 329.258 457.498 331.717 456.479C334.176 455.461 336.41 453.968 338.292 452.086C340.174 450.204 341.667 447.97 342.685 445.511C343.704 443.052 344.228 440.417 344.228 437.756V384.371H372.898C377.486 384.371 381.887 382.548 385.131 379.303C388.376 376.059 390.198 371.658 390.198 367.07C390.198 362.482 388.376 358.081 385.131 354.837C381.887 351.592 377.486 349.769 372.898 349.769Z" fill="#634C9F"/>
<path d="M903.78 349.769H875.111V265.344C875.111 260.86 873.329 256.56 870.159 253.389C866.988 250.218 862.687 248.437 858.203 248.437H851.485C849.265 248.437 847.066 248.874 845.015 249.724C842.964 250.574 841.1 251.819 839.53 253.389C837.96 254.959 836.714 256.823 835.865 258.874C835.015 260.925 834.578 263.124 834.578 265.344V349.769H753.71C752.047 349.769 750.411 349.339 748.963 348.521C747.514 347.703 746.302 346.524 745.443 345.099C744.585 343.674 744.109 342.052 744.062 340.389C744.015 338.726 744.399 337.079 745.176 335.608L830.765 173.615C831.832 171.595 832.479 169.38 832.667 167.104C832.854 164.827 832.578 162.536 831.856 160.369C831.133 158.202 829.979 156.204 828.464 154.496C826.948 152.787 825.101 151.403 823.036 150.428L817.983 148.042C814.06 146.189 809.575 145.916 805.455 147.278C801.336 148.64 797.898 151.533 795.853 155.36L691.465 350.636C689.688 353.961 688.758 357.674 688.758 361.444C688.758 367.525 691.173 373.356 695.473 377.656C699.772 381.955 705.604 384.371 711.684 384.371H834.578V437.756C834.578 443.131 836.713 448.285 840.514 452.086C844.314 455.887 849.469 458.022 854.844 458.022C860.219 458.022 865.374 455.887 869.175 452.086C872.975 448.285 875.111 443.131 875.111 437.756V384.371H903.78C908.369 384.371 912.769 382.548 916.014 379.303C919.258 376.059 921.081 371.658 921.081 367.07C921.081 362.482 919.258 358.081 916.014 354.837C912.769 351.592 908.369 349.769 903.78 349.769Z" fill="#634C9F"/>
<path d="M377.898 349.38H349.228V264.956C349.228 262.735 348.791 260.537 347.941 258.485C347.091 256.434 345.846 254.57 344.276 253C342.706 251.43 340.842 250.185 338.791 249.335C336.739 248.485 334.541 248.048 332.32 248.048H325.603C321.118 248.048 316.818 249.829 313.647 253C310.476 256.171 308.695 260.471 308.695 264.956V349.38H227.828C226.164 349.38 224.529 348.95 223.08 348.132C221.632 347.314 220.419 346.135 219.56 344.71C218.702 343.285 218.226 341.663 218.179 340C218.132 338.337 218.516 336.69 219.293 335.219L304.882 173.226C305.95 171.206 306.596 168.991 306.784 166.715C306.971 164.438 306.695 162.148 305.973 159.981C305.251 157.814 304.097 155.815 302.581 154.107C301.065 152.398 299.218 151.014 297.153 150.039L292.1 147.653C288.177 145.8 283.692 145.527 279.573 146.889C275.453 148.251 272.015 151.145 269.97 154.971L165.583 350.247C163.805 353.572 162.875 357.285 162.875 361.055C162.875 367.136 165.29 372.967 169.59 377.267C173.89 381.566 179.721 383.982 185.801 383.982H308.695V437.367C308.695 440.028 309.219 442.664 310.238 445.122C311.256 447.581 312.749 449.815 314.631 451.697C316.513 453.579 318.747 455.072 321.206 456.091C323.665 457.109 326.3 457.633 328.961 457.633C334.336 457.633 339.491 455.498 343.292 451.697C347.093 447.897 349.228 442.742 349.228 437.367V383.982H377.898C380.17 383.982 382.419 383.534 384.518 382.665C386.617 381.795 388.525 380.521 390.131 378.915C391.738 377.308 393.012 375.401 393.881 373.302C394.751 371.203 395.198 368.953 395.198 366.681C395.198 364.409 394.751 362.159 393.881 360.06C393.012 357.961 391.738 356.054 390.131 354.448C388.525 352.841 386.617 351.567 384.518 350.697C382.419 349.828 380.17 349.38 377.898 349.38Z" stroke="#3F3D56" stroke-miterlimit="10"/>
<path d="M909.589 346.153H880.919V261.728C880.919 259.508 880.482 257.309 879.632 255.258C878.783 253.207 877.537 251.343 875.967 249.773C874.397 248.203 872.533 246.957 870.482 246.108C868.431 245.258 866.232 244.821 864.012 244.821H857.294C852.81 244.821 848.509 246.602 845.338 249.773C842.168 252.944 840.386 257.244 840.386 261.728V346.153H759.519C757.855 346.153 756.22 345.723 754.771 344.905C753.323 344.087 752.111 342.908 751.252 341.483C750.393 340.058 749.917 338.436 749.871 336.773C749.824 335.11 750.208 333.463 750.985 331.992L836.574 169.999C837.641 167.979 838.288 165.764 838.475 163.488C838.663 161.211 838.387 158.92 837.664 156.753C836.942 154.586 835.788 152.588 834.272 150.88C832.756 149.171 830.91 147.787 828.844 146.812L823.792 144.426C819.869 142.573 815.383 142.3 811.264 143.662C807.145 145.024 803.707 147.917 801.661 151.744L697.274 347.02C695.496 350.345 694.566 354.058 694.566 357.828C694.566 363.909 696.982 369.74 701.281 374.04C705.581 378.339 711.412 380.755 717.493 380.755H840.386V434.139C840.386 436.801 840.911 439.436 841.929 441.895C842.948 444.354 844.44 446.588 846.322 448.47C848.204 450.352 850.438 451.845 852.897 452.863C855.356 453.882 857.991 454.406 860.653 454.406C866.028 454.406 871.183 452.271 874.983 448.47C878.784 444.669 880.919 439.514 880.919 434.139V380.755H909.589C911.861 380.755 914.111 380.307 916.21 379.438C918.309 378.568 920.216 377.294 921.822 375.687C923.429 374.081 924.703 372.174 925.573 370.075C926.442 367.976 926.89 365.726 926.89 363.454C926.89 361.182 926.442 358.932 925.573 356.833C924.703 354.734 923.429 352.827 921.823 351.221C920.216 349.614 918.309 348.34 916.21 347.47C914.111 346.601 911.861 346.153 909.589 346.153Z" stroke="#3F3D56" stroke-miterlimit="10"/>
<path d="M549.366 125.849C480.025 125.849 430.238 170.337 430.238 274.141C430.238 391.785 480.025 422.926 549.366 422.926C618.707 422.926 671.459 388.819 671.459 274.141C671.459 151.553 618.707 125.849 549.366 125.849ZM549.822 383.876C501.794 383.876 476.703 355.7 476.703 274.217C476.703 202.319 502.821 164.405 550.849 164.405C598.876 164.405 624.995 189.31 624.995 274.217C624.994 353.646 597.849 383.876 549.822 383.876Z" stroke="#3F3D56" stroke-miterlimit="10"/>
<path d="M493.784 25.1336C499.533 25.1336 504.193 20.4734 504.193 14.7247C504.193 8.97602 499.533 4.3158 493.784 4.3158C488.035 4.3158 483.375 8.97602 483.375 14.7247C483.375 20.4734 488.035 25.1336 493.784 25.1336Z" fill="#2F2E41"/>
<path d="M519.172 75.655C535.297 75.655 548.368 58.719 548.368 37.8275C548.368 16.9359 535.297 0 519.172 0C503.048 0 489.977 16.9359 489.977 37.8275C489.977 58.719 503.048 75.655 519.172 75.655Z" fill="#2F2E41"/>
<path opacity="0.1" d="M519.172 64.2304C504.547 64.2304 492.433 50.2963 490.308 32.1152C490.087 34.0112 489.976 35.9185 489.977 37.8274C489.977 58.7189 503.048 75.6549 519.172 75.6549C535.297 75.6549 548.368 58.7189 548.368 37.8274C548.368 35.9185 548.258 34.0112 548.037 32.1152C545.911 50.2963 533.798 64.2304 519.172 64.2304Z" fill="black"/>
<path d="M578.581 148.607C577.954 151.184 575.25 153.247 572.256 154.689C565.962 157.72 558.197 158.624 550.666 158.928C548.745 159.045 546.818 159.009 544.902 158.821C541.19 158.462 537.707 156.862 535.018 154.278C534.826 154.153 534.669 153.981 534.561 153.779C534.454 153.576 534.399 153.35 534.403 153.121C534.406 152.892 534.468 152.667 534.581 152.468C534.695 152.269 534.858 152.103 535.053 151.983C539.063 147.579 545.753 144.879 552.494 142.934C557.604 141.46 566.517 137.641 572.091 138.156C577.49 138.655 579.373 145.354 578.581 148.607Z" fill="#3F3D56"/>
<path opacity="0.1" d="M578.581 148.607C577.954 151.184 575.25 153.247 572.256 154.689C565.962 157.72 558.197 158.624 550.666 158.928C548.745 159.045 546.818 159.009 544.902 158.821C541.19 158.462 537.707 156.862 535.018 154.278C534.826 154.153 534.669 153.981 534.561 153.779C534.454 153.576 534.399 153.35 534.403 153.121C534.406 152.892 534.468 152.667 534.581 152.468C534.695 152.269 534.858 152.103 535.053 151.983C539.063 147.579 545.753 144.879 552.494 142.934C557.604 141.46 566.517 137.641 572.091 138.156C577.49 138.655 579.373 145.354 578.581 148.607Z" fill="black"/>
<path d="M498.547 129.35C496.626 133.116 496.278 137.491 497.58 141.513C498.905 145.505 501.384 149.014 504.704 151.596C512.848 158.124 524.058 159.022 534.495 158.932C543.643 158.852 552.778 158.226 561.851 157.057C564.891 156.787 567.879 156.094 570.727 154.996C574.134 153.522 577.127 150.819 578.34 147.31C579.553 143.802 578.692 139.507 575.812 137.165C573.281 135.108 569.791 134.825 566.535 134.63L547.907 133.51C549.748 131.648 552.198 130.594 554.439 129.24C557.413 127.444 559.388 124.428 561.55 121.709C564.881 117.728 568.505 114.001 572.392 110.561C572.999 114.039 575.199 116.895 577.788 119.294C580.377 121.694 583.362 123.625 586.053 125.91C592.571 131.444 597.264 138.954 604.119 144.064C608.835 142.825 613.243 140.624 617.068 137.599L614.403 132.774C614.181 132.277 613.836 131.846 613.399 131.521C612.645 131.057 611.673 131.296 610.797 131.165C608.457 130.814 607.435 128.112 606.516 125.93C603.995 119.942 599.168 115.297 595.045 110.275C592.002 106.568 589.303 102.592 586.98 98.3964C585.595 95.894 584.328 93.2884 582.448 91.1325C580.569 88.9765 577.935 87.2815 575.075 87.2755C572.548 87.2701 570.217 88.5531 568.044 89.8436C561.426 93.7745 555.059 98.1125 548.979 102.833C545.797 105.303 542.635 107.913 538.902 109.427C537.331 110.065 535.675 110.501 534.167 111.277C531.526 112.636 529.522 114.935 527.364 116.976C519.669 124.256 509.134 128.973 498.547 129.35Z" fill="#3F3D56"/>
<path d="M537.496 77.5335C537.409 79.7588 536.936 81.952 536.097 84.0149C535.671 85.0438 535.039 85.974 534.238 86.7476C533.438 87.5211 532.486 88.1215 531.443 88.5111C529.962 88.9078 528.41 88.9582 526.906 88.6583C525.595 88.5214 524.332 88.091 523.21 87.3991C521.463 86.1983 520.593 84.0555 520.275 81.9585C519.958 79.864 520.1 77.7239 519.897 75.6142C519.699 73.9101 519.375 72.2232 518.927 70.5671C518.79 70.0162 518.65 69.4679 518.513 68.9195C518.379 68.3711 518.247 67.8227 518.125 67.2744C518.013 66.759 517.909 66.2411 517.82 65.7207C517.747 65.2815 517.681 64.8397 517.632 64.3954C517.588 63.0783 517.368 61.773 516.98 60.5137C516.615 59.697 516.159 58.9244 515.619 58.211C515.388 57.881 515.165 57.551 514.959 57.2082C514.364 56.3175 514.088 55.252 514.175 54.1845C514.199 54.0195 514.239 53.8572 514.294 53.6997C514.314 53.6387 514.337 53.5778 514.362 53.5194C514.591 53.4574 514.801 53.3406 514.974 53.1791C515.147 53.0176 515.278 52.8163 515.355 52.5927C515.442 52.1124 515.401 51.6176 515.236 51.1583C515.046 50.5166 514.786 49.8976 514.461 49.3126C514.248 48.9267 513.525 48.2311 513.52 47.7894C513.509 46.9008 515.246 46.1849 515.949 45.8345C518.096 44.7596 520.489 44.2743 522.885 44.4281C524.421 44.5321 526.086 45.0043 526.934 46.2915C527.696 47.4517 527.594 48.9546 527.919 50.3027C527.954 50.4987 528.037 50.6829 528.161 50.8384C528.326 50.9894 528.535 51.0852 528.757 51.1126C529.133 51.1874 529.519 51.2028 529.9 51.1583H529.902C530.003 51.1503 530.103 51.1359 530.202 51.1151C530.795 51.0057 531.356 50.7636 531.842 50.4068C532.157 50.323 532.474 50.2545 532.794 50.2012C532.807 50.1999 532.82 50.1973 532.832 50.1936C534.104 54.2073 534.269 58.5105 535.31 62.5979C535.825 64.6315 536.564 66.6396 536.668 68.7316C536.676 68.823 536.678 68.9169 536.681 69.0108C536.696 69.6836 536.643 70.3614 536.671 71.0317C536.68 71.3335 536.714 71.634 536.772 71.9304C536.886 72.4071 537.028 72.8767 537.196 73.3369L537.204 73.3597C537.252 73.507 537.298 73.6568 537.336 73.8065C537.364 73.9157 537.389 74.0223 537.409 74.1315L537.412 74.1391C537.6 75.261 537.628 76.4037 537.496 77.5335Z" fill="#FBBEBE"/>
<path d="M519.682 51.2828C527.954 51.2828 534.66 44.5767 534.66 36.3042C534.66 28.0317 527.954 21.3255 519.682 21.3255C511.409 21.3255 504.703 28.0317 504.703 36.3042C504.703 44.5767 511.409 51.2828 519.682 51.2828Z" fill="#FBBEBE"/>
<path d="M614.777 117.915C614.343 113.829 612.89 109.916 610.552 106.536C610.941 108.847 611.33 111.156 611.72 113.465C611.235 113.605 610.72 113.601 610.237 113.452C609.755 113.304 609.326 113.018 609.004 112.63C608.373 111.842 607.89 110.947 607.579 109.987C605.878 105.762 603.652 101.768 600.956 98.0977C591.42 97.3031 581.994 93.3502 573.608 88.7423C565.22 84.137 557.37 78.6152 549.094 73.8145C547.659 72.9471 546.164 72.1836 544.621 71.5296C542.031 70.4912 539.124 69.953 536.669 68.7318C536.504 68.6506 536.339 68.5643 536.177 68.4754C535.622 68.1738 535.097 67.8211 534.608 67.4218C534.344 67.2072 534.093 66.9766 533.856 66.7313C532.632 65.3063 531.66 63.6816 530.985 61.928C529.668 59.0135 529.198 55.4973 527.883 52.5828C528.487 52.0179 529.166 51.5387 529.901 51.1586H529.904C530.01 51.1027 530.117 51.0494 530.226 50.9986C530.746 50.7536 531.288 50.5556 531.843 50.4071C532.158 50.3233 532.475 50.2548 532.795 50.2015C532.808 50.2001 532.821 50.1976 532.833 50.1938C534.317 49.9521 535.837 50.0723 537.264 50.5442C539.35 51.25 541.11 52.659 542.864 53.9918C545.714 55.9996 548.448 58.1679 551.052 60.486C552.499 61.8721 553.819 63.3953 555.375 64.6546C556.668 65.6527 558.032 66.5563 559.455 67.3584C567.876 72.3749 576.298 77.3907 584.72 82.4056C587.571 84.104 590.425 85.8024 593.213 87.5999C597.447 90.3316 601.53 93.2918 605.609 96.2494C608.014 97.991 610.417 99.7334 612.819 101.477C613.608 101.98 614.3 102.619 614.863 103.366C615.361 104.213 615.67 105.158 615.77 106.135C616.373 110.085 616.032 114.122 614.777 117.915Z" fill="#FBBEBE"/>
<path d="M541.212 88.7983C540.202 93.33 535.622 96.0693 533.228 100.05C530.252 104.99 531.466 110.733 532.583 116.392C530.542 118.151 528.5 119.911 526.457 121.67C525.33 122.637 524.202 123.61 522.989 124.465C521.219 125.651 519.37 126.713 517.454 127.644C515.647 128.573 513.839 129.503 512.032 130.434C510.351 131.379 508.571 132.133 506.723 132.683C503.161 133.597 499.378 132.957 495.855 131.899C495.439 131.79 495.04 131.627 494.666 131.414C494.447 131.283 494.255 131.109 494.103 130.904C493.755 130.281 493.629 129.559 493.745 128.855C494.103 122.924 495.552 117.118 496.997 111.355C497.769 107.898 498.807 104.505 500.102 101.208C501.372 98.3823 502.832 95.646 504.471 93.0177C506.281 89.7108 508.424 86.5981 510.869 83.7284C512.059 82.6239 513.06 81.3324 513.834 79.905C514.735 77.8486 514.388 75.4901 514.57 73.2509C514.71 71.5686 515.157 69.926 515.888 68.4045V68.4019C516.279 67.5823 516.75 66.8034 517.294 66.0764C517.541 66.6502 517.787 67.2231 518.033 67.7952C518.196 68.1709 518.356 68.5458 518.516 68.9199C518.724 69.4022 518.93 69.8829 519.135 70.3619C519.726 71.7379 520.317 73.113 520.907 74.4874C521.544 76.2183 522.453 77.8371 523.598 79.2831C524.122 80.0235 524.828 80.6155 525.649 81.0013C526.47 81.3871 527.376 81.5534 528.28 81.4841C529.185 81.4148 530.055 81.1122 530.808 80.6058C531.56 80.0995 532.168 79.4067 532.573 78.5951C533.426 77.0801 534.044 75.4442 534.406 73.7435C534.907 71.6727 534.976 69.5208 534.609 67.422C533.997 63.3803 532.278 59.2523 531.029 55.4975C530.521 54.2455 530.226 52.917 530.158 51.5675C530.161 51.4158 530.176 51.2646 530.204 51.1155C530.212 51.0775 530.219 51.0369 530.227 50.9988C530.747 50.7537 531.288 50.5558 531.844 50.4072C532.159 50.3235 532.476 50.2549 532.796 50.2016C533.895 56.1524 534.996 62.1033 536.099 68.0541C536.124 68.1938 536.152 68.3334 536.178 68.4756C536.335 69.3286 536.495 70.1816 536.673 71.0321C536.833 71.8039 537.005 72.5731 537.198 73.3373L537.206 73.3601C537.272 73.6191 537.34 73.8755 537.412 74.1319L537.414 74.1395C537.61 74.8402 537.828 75.5359 538.074 76.2213C539.567 80.3519 542.169 84.5103 541.212 88.7983Z" fill="#634C9F"/>
<path d="M602 152.483C601.953 153.356 602.122 154.227 602.492 155.019C603.43 156.732 605.679 157.122 607.625 157.282C618.995 158.216 630.434 157.868 641.726 156.243C642.339 156.201 642.933 156.016 643.462 155.704C645.067 154.579 644.078 151.835 642.325 150.957C640.572 150.079 638.491 150.291 636.568 149.91C634.657 149.429 632.837 148.64 631.18 147.574C627.279 145.333 623.435 142.996 619.648 140.564C617.393 139.116 614.732 137.571 612.193 138.429C605.315 140.756 601.955 145.063 602 152.483Z" fill="#3F3D56"/>
<path d="M518.184 66.9572V66.9597C518.166 67.0663 518.149 67.1704 518.126 67.2745C518.098 67.4472 518.065 67.6223 518.032 67.7949C517.717 69.407 517.331 71.0115 516.887 72.6059C515.668 77.0106 514.036 81.3443 512.416 85.6145C508.07 97.0642 503.723 108.515 499.375 119.966C498.278 122.85 497.184 125.737 495.937 128.563C495.521 129.504 495.092 130.454 494.665 131.414C493.137 134.849 491.669 138.395 491.182 142.051C490.727 144.457 490.675 146.922 491.027 149.345C491.515 151.741 492.969 154.082 495.247 154.968C496.359 155.402 497.95 155.984 497.646 157.139C497.481 157.774 496.76 158.083 496.112 158.19C495.257 158.326 494.383 158.273 493.551 158.033C492.719 157.793 491.95 157.374 491.299 156.804C490.083 155.725 489.148 154.047 487.531 153.866C486.412 153.745 485.381 154.415 484.355 154.884C480.171 156.796 475.297 155.458 470.902 154.1C471.248 152.32 473.035 151.147 474.81 150.792C476.584 150.434 478.42 150.688 480.23 150.64C480.809 150.671 481.385 150.523 481.877 150.216C482.319 149.81 482.629 149.281 482.766 148.697C483.932 145.243 484.799 141.694 485.358 138.091C485.942 134.326 486.186 130.502 487.018 126.783C487.666 123.881 488.666 121.071 489.524 118.222C491.183 112.357 492.546 106.412 493.606 100.41C494.143 97.9167 494.527 95.3927 494.756 92.8525C494.901 90.7453 494.833 88.628 495.036 86.5284C495.377 83.7969 495.946 81.0988 496.739 78.4628C497.516 75.5864 498.292 72.7117 499.067 69.8386C500.217 65.5862 501.451 61.1688 504.366 57.8633C505.378 56.6996 506.618 55.7562 508.01 55.0916C509.402 54.4269 510.915 54.0552 512.457 53.9993C513.035 53.9986 513.611 54.0608 514.175 54.1847C514.269 54.2075 514.363 54.2303 514.457 54.2557C515.072 54.4166 515.663 54.6609 516.212 54.9818C517.11 54.4106 517.567 54.6112 518.164 55.4921C518.687 56.4244 518.933 57.4865 518.875 58.5539C518.925 61.371 518.694 64.1861 518.184 66.9572Z" fill="#FBBEBE"/>
<path d="M519.172 70.3237L519.134 70.3618L518.928 70.5674L516.887 72.606L515.887 68.4044L512.457 53.9995C513.035 53.9988 513.611 54.0609 514.176 54.1848C514.2 54.0198 514.24 53.8574 514.295 53.6999L514.458 54.2559L515.62 58.2113L517.821 65.7209L518.184 66.9573V66.9598L519.172 70.3237Z" fill="#634C9F"/>
<path d="M532.126 24.3681C532.124 25.7019 531.859 27.0223 531.347 28.2538C530.835 29.4854 530.085 30.6039 529.14 31.5454C528.798 31.8881 528.431 32.2053 528.043 32.4945C526.291 33.8152 524.157 34.53 521.963 34.531H509.783C507.092 34.5269 504.512 33.4548 502.61 31.5503C500.709 29.6457 499.641 27.0644 499.641 24.373C499.641 21.6817 500.709 19.1003 502.61 17.1958C504.512 15.2912 507.092 14.2192 509.783 14.215H521.963C524.654 14.222 527.234 15.2937 529.138 17.1959C531.042 19.0982 532.116 21.6766 532.126 24.3681Z" fill="#2F2E41"/>
<path d="M543.546 25.1336C549.294 25.1336 553.955 20.4734 553.955 14.7247C553.955 8.97602 549.294 4.3158 543.546 4.3158C537.797 4.3158 533.137 8.97602 533.137 14.7247C533.137 20.4734 537.797 25.1336 543.546 25.1336Z" fill="#2F2E41"/>
<path opacity="0.1" d="M543.291 4.3158C543.163 4.3158 543.037 4.32086 542.91 4.32542C545.603 4.42331 548.152 5.5618 550.023 7.50135C551.893 9.44089 552.938 12.0303 552.938 14.7247C552.938 17.4191 551.893 20.0085 550.023 21.9481C548.152 23.8876 545.603 25.0261 542.91 25.124C543.037 25.1285 543.163 25.1336 543.291 25.1336C546.052 25.1336 548.699 24.037 550.651 22.0849C552.603 20.1329 553.7 17.4853 553.7 14.7247C553.7 11.9641 552.603 9.31654 550.651 7.3645C548.699 5.41245 546.052 4.3158 543.291 4.3158Z" fill="black"/>
<path opacity="0.1" d="M493.783 4.3158C493.91 4.3158 494.037 4.32086 494.163 4.32542C491.471 4.42331 488.921 5.5618 487.051 7.50135C485.18 9.44089 484.135 12.0303 484.135 14.7247C484.135 17.4191 485.18 20.0085 487.051 21.9481C488.921 23.8876 491.471 25.0261 494.163 25.124C494.037 25.1285 493.91 25.1336 493.783 25.1336C491.024 25.1312 488.378 24.0334 486.428 22.0817C484.478 20.1299 483.383 17.4837 483.383 14.7247C483.383 11.9657 484.478 9.31952 486.428 7.36773C488.378 5.41595 491.024 4.31822 493.783 4.3158Z" fill="black"/>
<path opacity="0.1" d="M528.043 32.4945C526.291 33.8152 524.157 34.53 521.963 34.531H509.783C507.589 34.53 505.455 33.8152 503.703 32.4945H528.043Z" fill="black"/>
<path d="M606.695 107.917C606.695 107.917 609.319 115.478 611.721 113.465L609.807 103.581L606.695 107.917Z" fill="#FBBEBE"/>
<path d="M120.927 379.405C122.533 379.989 124.252 380.192 125.95 379.998C127.647 379.804 129.277 379.218 130.709 378.287C132.142 377.355 133.338 376.104 134.205 374.632C135.072 373.159 135.584 371.505 135.703 369.801C135.821 368.096 135.542 366.387 134.887 364.809C134.232 363.231 133.22 361.826 131.93 360.706C130.64 359.586 129.107 358.781 127.453 358.354C125.798 357.927 124.067 357.89 122.396 358.246L122.672 363.925L119.986 359.058C117.349 360.297 115.312 362.532 114.322 365.272C113.971 366.232 113.757 367.237 113.688 368.257C113.518 370.649 114.133 373.032 115.439 375.044C116.746 377.056 118.672 378.587 120.927 379.405Z" fill="#57B894"/>
<path d="M134.219 445.266C133.271 440.437 137.38 436.156 141.439 433.373C145.499 430.59 150.242 427.856 151.627 423.133C153.617 416.346 147.688 410.13 143.073 404.769C139.649 400.792 136.709 396.422 134.314 391.752C133.273 389.917 132.564 387.914 132.219 385.833C131.855 382.824 132.822 379.83 133.796 376.961C137.039 367.401 140.508 357.921 144.2 348.521" stroke="#3F3D56" stroke-miterlimit="10"/>
<path d="M121.38 377.943C122.986 378.527 124.705 378.73 126.403 378.536C128.1 378.342 129.73 377.756 131.162 376.825C132.595 375.893 133.792 374.642 134.658 373.17C135.525 371.697 136.037 370.043 136.156 368.339C136.274 366.634 135.995 364.926 135.34 363.347C134.685 361.769 133.673 360.364 132.383 359.244C131.093 358.124 129.56 357.319 127.906 356.892C126.251 356.465 124.52 356.428 122.849 356.784L123.125 362.463L120.439 357.596C117.802 358.835 115.765 361.07 114.775 363.81C114.424 364.77 114.21 365.775 114.141 366.795C113.971 369.187 114.586 371.57 115.893 373.582C117.199 375.594 119.125 377.125 121.38 377.943Z" stroke="#3F3D56" stroke-miterlimit="10"/>
<path d="M132.872 346.56C133.503 344.821 134.56 343.269 135.948 342.046C137.336 340.824 139.009 339.97 140.813 339.564L141.722 344.962L143.406 339.293C145.744 339.327 148.011 340.104 149.879 341.511C151.747 342.918 153.119 344.882 153.798 347.12C154.477 349.358 154.427 351.754 153.656 353.961C152.885 356.169 151.432 358.074 149.507 359.403C147.582 360.731 145.285 361.413 142.947 361.35C140.609 361.287 138.352 360.484 136.501 359.054C134.65 357.625 133.301 355.645 132.649 353.399C131.996 351.153 132.075 348.758 132.872 346.56Z" fill="#57B894"/>
<path d="M133.478 344.611C134.108 342.872 135.166 341.32 136.554 340.097C137.941 338.874 139.614 338.021 141.419 337.615L142.327 343.013L144.011 337.343C146.35 337.378 148.616 338.155 150.484 339.562C152.352 340.969 153.725 342.933 154.404 345.171C155.083 347.409 155.033 349.804 154.261 352.012C153.49 354.22 152.037 356.125 150.112 357.453C148.187 358.781 145.89 359.463 143.552 359.401C141.215 359.338 138.957 358.534 137.106 357.105C135.255 355.676 133.906 353.696 133.254 351.45C132.602 349.204 132.68 346.809 133.478 344.611Z" stroke="#3F3D56" stroke-miterlimit="10"/>
<path d="M141.137 404.879C143.684 405.803 146.481 405.757 148.997 404.751C151.512 403.744 153.569 401.848 154.775 399.422C155.982 396.997 156.254 394.212 155.54 391.599C154.825 388.986 153.174 386.727 150.901 385.253L149.607 389.61L148.689 384.148C148.68 384.144 148.671 384.14 148.661 384.138C147.299 383.642 145.853 383.42 144.405 383.484C142.957 383.548 141.535 383.897 140.222 384.51C138.909 385.124 137.729 385.99 136.751 387.059C135.773 388.129 135.015 389.381 134.521 390.743C134.026 392.106 133.805 393.552 133.87 395C133.936 396.448 134.285 397.869 134.9 399.182C135.514 400.495 136.381 401.674 137.452 402.651C138.522 403.629 139.774 404.386 141.137 404.879Z" fill="#57B894"/>
<path d="M141.664 402.904C144.211 403.828 147.009 403.782 149.524 402.776C152.039 401.77 154.096 399.873 155.303 397.448C156.509 395.022 156.781 392.238 156.067 389.625C155.352 387.011 153.701 384.753 151.428 383.279L150.134 387.636L149.216 382.174C149.207 382.169 149.198 382.166 149.188 382.163C147.827 381.669 146.381 381.448 144.933 381.513C143.486 381.577 142.066 381.927 140.753 382.54C138.103 383.78 136.054 386.021 135.056 388.772C134.058 391.522 134.194 394.556 135.433 397.207C136.672 399.857 138.914 401.906 141.664 402.904Z" stroke="#3F3D56" stroke-miterlimit="10"/>
<path d="M129.654 423.2C130.092 425.692 131.373 427.957 133.283 429.616C135.193 431.275 137.615 432.227 140.143 432.312C142.671 432.397 145.152 431.611 147.169 430.084C149.186 428.557 150.617 426.383 151.221 423.927C151.826 421.47 151.567 418.881 150.489 416.592C149.411 414.304 147.579 412.456 145.3 411.358C143.02 410.26 140.433 409.979 137.972 410.562C135.51 411.146 133.324 412.557 131.78 414.561L136.695 421.96L129.979 418.033C129.458 419.704 129.347 421.477 129.654 423.2Z" fill="#57B894"/>
<path d="M130.107 421.738C130.545 424.23 131.826 426.495 133.736 428.154C135.646 429.813 138.068 430.765 140.596 430.85C143.124 430.935 145.605 430.149 147.622 428.622C149.639 427.095 151.07 424.921 151.674 422.465C152.279 420.008 152.02 417.419 150.942 415.13C149.864 412.842 148.032 410.994 145.753 409.896C143.474 408.798 140.886 408.517 138.425 409.1C135.963 409.684 133.777 411.095 132.233 413.099L137.148 420.498L130.432 416.571C129.911 418.242 129.8 420.015 130.107 421.738Z" stroke="#3F3D56" stroke-miterlimit="10"/>
<path d="M501.696 275.218C509.271 275.218 515.412 267.271 515.412 257.468C515.412 247.665 509.271 239.718 501.696 239.718C494.121 239.718 487.98 247.665 487.98 257.468C487.98 267.271 494.121 275.218 501.696 275.218Z" fill="#2F2E41"/>
<path d="M576.325 275.622C583.9 275.622 590.041 267.675 590.041 257.872C590.041 248.069 583.9 240.122 576.325 240.122C568.75 240.122 562.609 248.069 562.609 257.872C562.609 267.675 568.75 275.622 576.325 275.622Z" fill="#2F2E41"/>
<path d="M565.835 310.315C565.835 318.335 554.637 324.838 540.824 324.838C527.011 324.838 515.812 318.335 515.812 310.315C515.812 303.368 524.211 297.559 535.434 296.139C537.221 295.903 539.022 295.787 540.824 295.792C543.844 295.782 546.855 296.107 549.804 296.76C559.179 298.85 565.835 304.135 565.835 310.315Z" fill="#2F2E41"/>
<path d="M504.923 271.184C512.498 271.184 518.639 263.237 518.639 253.434C518.639 243.631 512.498 235.684 504.923 235.684C497.348 235.684 491.207 243.631 491.207 253.434C491.207 263.237 497.348 271.184 504.923 271.184Z" stroke="#3F3D56" stroke-miterlimit="10"/>
<path d="M579.552 271.588C587.127 271.588 593.268 263.641 593.268 253.838C593.268 244.035 587.127 236.088 579.552 236.088C571.977 236.088 565.836 244.035 565.836 253.838C565.836 263.641 571.977 271.588 579.552 271.588Z" stroke="#3F3D56" stroke-miterlimit="10"/>
<path d="M544.054 320.804C557.868 320.804 569.066 314.302 569.066 306.281C569.066 298.26 557.868 291.758 544.054 291.758C530.241 291.758 519.043 298.26 519.043 306.281C519.043 314.302 530.241 320.804 544.054 320.804Z" stroke="#3F3D56" stroke-miterlimit="10"/>
<path d="M550.105 297.97C550.111 298.985 549.73 299.964 549.04 300.707C548.713 301.063 548.317 301.348 547.876 301.543C547.434 301.739 546.957 301.841 546.474 301.843H538.406C537.412 301.809 536.472 301.382 535.791 300.656C535.111 299.93 534.746 298.965 534.775 297.97C534.771 297.184 535.001 296.414 535.437 295.759C537.222 295.507 539.023 295.384 540.826 295.389C543.85 295.379 546.864 295.725 549.806 296.421C550.005 296.913 550.107 297.44 550.105 297.97Z" fill="white"/>
<path d="M504.921 252.627C507.149 252.627 508.955 250.821 508.955 248.593C508.955 246.365 507.149 244.559 504.921 244.559C502.693 244.559 500.887 246.365 500.887 248.593C500.887 250.821 502.693 252.627 504.921 252.627Z" fill="white"/>
<path d="M579.956 252.627C582.184 252.627 583.99 250.821 583.99 248.593C583.99 246.365 582.184 244.559 579.956 244.559C577.728 244.559 575.922 246.365 575.922 248.593C575.922 250.821 577.728 252.627 579.956 252.627Z" fill="white"/>
<path opacity="0.3" d="M583.991 290.548C586.219 290.548 588.025 288.742 588.025 286.514C588.025 284.286 586.219 282.48 583.991 282.48C581.763 282.48 579.957 284.286 579.957 286.514C579.957 288.742 581.763 290.548 583.991 290.548Z" fill="#634C9F"/>
<path opacity="0.3" d="M485.558 290.548C487.785 290.548 489.592 288.742 489.592 286.514C489.592 284.286 487.785 282.48 485.558 282.48C483.33 282.48 481.523 284.286 481.523 286.514C481.523 288.742 483.33 290.548 485.558 290.548Z" fill="#634C9F"/>
</svg>
