<svg width="15" height="16" viewBox="0 0 15 16" fill="none" xmlns="http://www.w3.org/2000/svg">
<g clip-path="url(#clip0_6497_318)">
<path d="M10.4727 8.59992L10.8927 5.88492H8.28266V4.12992C8.28266 3.70992 8.39266 3.37492 8.61266 3.12492C8.88266 2.81492 9.28266 2.65992 9.81266 2.65992H10.9977V0.349922L10.3377 0.259922C9.80766 0.199923 9.32766 0.169922 8.89766 0.169922C8.17766 0.169922 7.55266 0.312422 7.02266 0.597423C6.49266 0.882422 6.08266 1.29992 5.79266 1.84992C5.50266 2.39992 5.35766 3.05992 5.35766 3.82992V5.88492H2.97266V8.59992H5.35766V15.1699H8.28266V8.59992H10.4727Z" fill="#1877F2"/>
</g>
<defs>
<clipPath id="clip0_6497_318">
<rect width="15" height="15" fill="white" transform="matrix(1 0 0 -1 0 15.1699)"/>
</clipPath>
</defs>
</svg>
