<svg width="17" height="17" viewBox="0 0 17 17" fill="none" xmlns="http://www.w3.org/2000/svg">
<path d="M8.66816 5.06973C8.01749 5.06973 7.41749 5.2324 6.86816 5.55773C6.31882 5.88307 5.88149 6.3204 5.55616 6.86973C5.23082 7.41907 5.06816 8.01907 5.06816 8.66973C5.06816 9.3204 5.23082 9.9204 5.55616 10.4697C5.88149 11.0191 6.31882 11.4537 6.86816 11.7737C7.41749 12.0937 8.01749 12.2537 8.66816 12.2537C9.31882 12.2537 9.91882 12.0937 10.4682 11.7737C11.0175 11.4537 11.4522 11.0191 11.7722 10.4697C12.0922 9.9204 12.2522 9.3204 12.2522 8.66973C12.2522 8.01907 12.0922 7.41907 11.7722 6.86973C11.4522 6.3204 11.0175 5.88307 10.4682 5.55773C9.91882 5.2324 9.31882 5.06973 8.66816 5.06973ZM8.66816 11.0057C8.24149 11.0057 7.84949 10.9017 7.49216 10.6937C7.13482 10.4857 6.85216 10.2004 6.64416 9.83773C6.43616 9.47507 6.33216 9.08573 6.33216 8.66973C6.33216 8.25373 6.43616 7.8644 6.64416 7.50173C6.85216 7.13907 7.13482 6.85373 7.49216 6.64573C7.84949 6.43773 8.24149 6.33373 8.66816 6.33373C9.09482 6.33373 9.48682 6.43773 9.84416 6.64573C10.2015 6.85373 10.4842 7.1364 10.6922 7.49373C10.9002 7.85107 11.0042 8.24307 11.0042 8.66973C11.0042 9.0964 10.9002 9.4884 10.6922 9.84573C10.4842 10.2031 10.1988 10.4857 9.83616 10.6937C9.47349 10.9017 9.08416 11.0057 8.66816 11.0057ZM13.2442 4.92573C13.2442 5.1604 13.1615 5.3604 12.9962 5.52573C12.8308 5.69107 12.6308 5.77373 12.3962 5.77373C12.1615 5.77373 11.9642 5.69107 11.8042 5.52573C11.6442 5.3604 11.5642 5.1604 11.5642 4.92573C11.5642 4.69107 11.6442 4.49373 11.8042 4.33373C11.9642 4.17373 12.1615 4.09373 12.3962 4.09373C12.6308 4.09373 12.8308 4.17373 12.9962 4.33373C13.1615 4.49373 13.2442 4.69107 13.2442 4.92573ZM15.6122 5.77373C15.5908 5.16573 15.5002 4.63773 15.3402 4.18973C15.1588 3.67773 14.8735 3.22973 14.4842 2.84573C14.0948 2.46173 13.6442 2.17907 13.1322 1.99773C12.6842 1.83773 12.1562 1.74173 11.5482 1.70973C10.9722 1.67773 10.0095 1.66173 8.66016 1.66173C7.31082 1.66173 6.34816 1.67773 5.77216 1.70973C5.15349 1.74173 4.62549 1.83773 4.18816 1.99773C3.67616 2.17907 3.22816 2.46173 2.84416 2.84573C2.46016 3.22973 2.17749 3.67773 1.99616 4.18973C1.82549 4.63773 1.72949 5.16573 1.70816 5.77373C1.67616 6.34973 1.66016 7.3124 1.66016 8.66173C1.66016 10.0111 1.67616 10.9737 1.70816 11.5497C1.72949 12.1577 1.82016 12.6857 1.98016 13.1337C2.16149 13.6457 2.44949 14.0991 2.84416 14.4937C3.23882 14.8884 3.69216 15.1711 4.20416 15.3417C4.63082 15.5017 5.15349 15.5924 5.77216 15.6137C6.34816 15.6564 7.31082 15.6777 8.66016 15.6777C10.0095 15.6777 10.9722 15.6564 11.5482 15.6137C12.1562 15.5924 12.6842 15.5017 13.1322 15.3417C13.6442 15.1604 14.0948 14.8751 14.4842 14.4857C14.8735 14.0964 15.1588 13.6457 15.3402 13.1337C15.5002 12.6857 15.5908 12.1577 15.6122 11.5497C15.6442 10.9737 15.6602 10.0137 15.6602 8.66973C15.6602 7.32573 15.6442 6.3604 15.6122 5.77373ZM14.1242 12.7977C14.0068 13.0964 13.8335 13.3631 13.6042 13.5977C13.3748 13.8324 13.1055 14.0084 12.7962 14.1257C12.4442 14.2644 11.8735 14.3551 11.0842 14.3977C10.6362 14.4191 9.99082 14.4244 9.14816 14.4137H8.18816C7.34549 14.4244 6.70016 14.4191 6.25216 14.3977C5.45216 14.3551 4.88149 14.2644 4.54016 14.1257C4.23082 14.0084 3.96149 13.8351 3.73216 13.6057C3.50282 13.3764 3.32949 13.1071 3.21216 12.7977C3.07349 12.4457 2.98282 11.8751 2.94016 11.0857C2.91882 10.6377 2.91349 9.9924 2.92416 9.14973V8.18973C2.91349 7.34707 2.91882 6.70173 2.94016 6.25373C2.98282 5.45373 3.07349 4.88307 3.21216 4.54173C3.32949 4.2324 3.50282 3.96307 3.73216 3.73373C3.96149 3.5044 4.23082 3.33107 4.54016 3.21373C4.88149 3.07507 5.44682 2.9844 6.23616 2.94173C6.68416 2.9204 7.33482 2.91507 8.18816 2.92573H9.14816C9.99082 2.91507 10.6362 2.9204 11.0842 2.94173C11.8735 2.9844 12.4442 3.07507 12.7962 3.21373C13.1055 3.33107 13.3748 3.5044 13.6042 3.73373C13.8335 3.96307 14.0068 4.2324 14.1242 4.54173C14.2628 4.88307 14.3535 5.4484 14.3962 6.23773C14.4175 6.68573 14.4228 7.3364 14.4122 8.18973V9.14973C14.4228 9.9924 14.4175 10.6377 14.3962 11.0857C14.3535 11.8751 14.2628 12.4457 14.1242 12.7977Z" fill="#FD1D1D"/>
</svg>
