<svg width="64" height="15" viewBox="0 0 64 15" fill="none" xmlns="http://www.w3.org/2000/svg">
<mask id="mask0_6497_363" style="mask-type:luminance" maskUnits="userSpaceOnUse" x="0" y="0" width="64" height="15">
<path d="M63.2 0.0703125H0.5V14.0703H63.2V0.0703125Z" fill="white"/>
</mask>
<g mask="url(#mask0_6497_363)">
<path d="M11.5993 0.0703125H8.59922C8.59922 2.57031 7.39922 4.87031 5.39922 6.37031L4.19922 7.37031L8.89922 13.7703H12.7993L8.39922 7.87031C10.4993 5.87031 11.5993 3.07031 11.5993 0.0703125Z" fill="black"/>
<path d="M3.79922 0.0703125H0.699219V13.7703H3.79922V0.0703125Z" fill="black"/>
<path d="M16.6992 0.0703125H13.6992V13.7703H16.6992V0.0703125Z" fill="black"/>
<path d="M42.5984 4.07031C41.4984 4.07031 40.3984 4.37031 39.6984 5.37031V4.37031H36.8984V13.7703H39.7984V8.77031C39.7984 7.37031 40.7984 6.67031 41.8984 6.67031C43.0984 6.67031 43.8984 7.37031 43.8984 8.77031V13.7703H46.6984V7.77031C46.5984 5.57031 44.8984 4.07031 42.5984 4.07031Z" fill="black"/>
<path d="M25.6008 4.37031V4.97031C24.8008 4.37031 23.8008 4.07031 22.8008 4.07031C20.0008 4.07031 17.8008 6.27031 17.8008 9.07031C17.8008 11.8703 20.0008 14.0703 22.8008 14.0703C23.8008 14.0703 24.8008 13.7703 25.6008 13.1703V13.7703H28.4008V4.37031H25.6008ZM23.0008 11.4703C21.6008 11.4703 20.4008 10.3703 20.4008 9.07031C20.4008 7.77031 21.5008 6.67031 23.0008 6.67031C24.5008 6.67031 25.6008 7.77031 25.6008 9.07031C25.6008 10.3703 24.4008 11.4703 23.0008 11.4703Z" fill="black"/>
<path d="M32.7984 5.57061V4.37061H29.8984V13.7706H32.7984V9.37061C32.7984 7.87061 34.3984 7.07061 35.4984 7.07061V4.37061C34.3984 4.37061 33.3984 4.77061 32.7984 5.57061Z" fill="black"/>
<path d="M55.3977 4.37031V4.97031C54.5977 4.37031 53.6977 4.07031 52.5977 4.07031C49.7977 4.07031 47.5977 6.27031 47.5977 9.07031C47.5977 11.8703 49.7977 14.0703 52.5977 14.0703C53.5977 14.0703 54.5977 13.7703 55.3977 13.1703V13.7703H58.1977V4.37031H55.3977ZM52.8977 11.4703C51.4977 11.4703 50.2977 10.3703 50.2977 9.07031C50.2977 7.77031 51.3977 6.67031 52.8977 6.67031C54.2977 6.67031 55.4977 7.77031 55.4977 9.07031C55.3977 10.3703 54.2977 11.4703 52.8977 11.4703Z" fill="black"/>
<path d="M60.3984 4.57061C60.3984 4.47061 60.2984 4.37061 60.1984 4.37061H59.8984V5.07061H59.9984V4.87061H60.0984L60.2984 5.07061H60.3984L60.2984 4.77061C60.3984 4.77061 60.3984 4.67061 60.3984 4.57061ZM60.1984 4.67061H60.0984V4.47061H60.1984C60.2984 4.47061 60.2984 4.47061 60.2984 4.57061C60.2984 4.67061 60.2984 4.67061 60.1984 4.67061Z" fill="black"/>
<path d="M60.2 4.07031C59.8 4.07031 59.5 4.37031 59.5 4.77031C59.5 5.17031 59.8 5.47031 60.2 5.47031C60.6 5.47031 60.9 5.17031 60.9 4.77031C60.9 4.37031 60.5 4.07031 60.2 4.07031ZM60.2 5.27031C59.9 5.27031 59.7 5.07031 59.7 4.67031C59.7 4.37031 59.9 4.07031 60.2 4.07031C60.5 4.07031 60.7 4.27031 60.7 4.67031C60.7 5.07031 60.4 5.27031 60.2 5.27031Z" fill="black"/>
<path d="M61.3 10.4702C60.3 10.4702 59.5 11.2702 59.5 12.2702C59.5 13.2702 60.3 14.0702 61.3 14.0702C62.3 14.0702 63.1 13.2702 63.1 12.2702C63.1 11.1702 62.3 10.4702 61.3 10.4702Z" fill="black"/>
</g>
</svg>
