<svg width="15" height="16" viewBox="0 0 15 16" fill="none" xmlns="http://www.w3.org/2000/svg">
<g clip-path="url(#clip0_6497_326)">
<path d="M4.03766 13.2949H1.32266V4.53492H4.03766V13.2949ZM2.67266 3.33492C2.39266 3.33492 2.13016 3.26242 1.88516 3.11742C1.64016 2.97242 1.44766 2.77992 1.30766 2.53992C1.16766 2.29992 1.09766 2.03492 1.09766 1.74492C1.09766 1.45492 1.16766 1.18992 1.30766 0.949923C1.44766 0.709922 1.63766 0.519922 1.87766 0.379922C2.11766 0.239923 2.38266 0.169922 2.67266 0.169922C2.96266 0.169922 3.22766 0.239923 3.46766 0.379922C3.70766 0.519922 3.89766 0.709922 4.03766 0.949923C4.17766 1.18992 4.24766 1.45492 4.24766 1.74492C4.24766 2.03492 4.17766 2.29992 4.03766 2.53992C3.89766 2.77992 3.70516 2.97242 3.46016 3.11742C3.21516 3.26242 2.95266 3.33492 2.67266 3.33492ZM14.2227 13.2949H11.5077V9.03492C11.5077 8.57492 11.4877 8.22492 11.4477 7.98492C11.3877 7.59492 11.2627 7.29492 11.0727 7.08492C10.8527 6.83492 10.5277 6.70992 10.0977 6.70992C9.44766 6.70992 8.99766 6.93992 8.74766 7.39992C8.55766 7.74992 8.46266 8.26992 8.46266 8.95992V13.2949H5.74766V4.53492H8.35766V5.71992H8.38766C8.58766 5.33992 8.89766 5.01992 9.31766 4.75992C9.79766 4.45992 10.3477 4.30992 10.9677 4.30992C11.8377 4.30992 12.5277 4.49492 13.0377 4.86492C13.4877 5.19492 13.8027 5.68992 13.9827 6.34992C14.1427 6.89992 14.2227 7.60992 14.2227 8.47992V13.2949Z" fill="#0077B5"/>
</g>
<defs>
<clipPath id="clip0_6497_326">
<rect width="15" height="15" fill="white" transform="matrix(1 0 0 -1 0 15.1699)"/>
</clipPath>
</defs>
</svg>
