<svg width="45" height="40" viewBox="0 0 45 40" fill="none" xmlns="http://www.w3.org/2000/svg">
<path d="M22.3595 39.3662C31.1723 39.3662 38.3166 32.222 38.3166 23.4091V11.4488C38.3166 7.89234 35.4701 5.00935 31.9587 5.00935H12.7603C9.24884 5.00935 6.40234 7.89234 6.40234 11.4488V23.4091C6.40234 32.222 13.5466 39.3662 22.3595 39.3662Z" fill="#634C9F"/>
<path d="M15.0287 24.1017C15.3612 25.6169 16.3586 27.6371 17.5222 27.9738C24.2057 30.2817 31.3059 30.1995 38.3151 30.2967V11.4488C38.3151 7.89234 35.4686 5.00934 31.9571 5.00934H12.7587C10.8622 5.00934 9.16086 5.85131 7.99609 7.18506C13.5001 10.5777 13.3089 18.084 15.0287 24.1017Z" fill="#FACC15"/>
<path d="M36.7976 31.2336C36.6699 31.2336 36.5415 31.2284 36.4123 31.2178L20.0381 29.864C17.5265 29.6562 15.4061 27.859 14.7617 25.3918L11.5694 13.1709C11.0034 10.9979 10.4179 8.75114 7.9167 8.07046L0.79662 6.58788C0.257208 6.47559 -0.090377 5.94155 0.0206638 5.39506C0.131538 4.84856 0.659649 4.49668 1.1984 4.60898L8.39926 6.10991C12.0463 7.08202 12.8854 10.3034 13.4982 12.6556L13.5391 12.8128L16.6901 24.8751C17.1188 26.5165 18.5294 27.712 20.2003 27.8504L36.5747 29.2042C37.8766 29.3119 39.0729 28.4644 39.4202 27.1896L42.4368 16.1147L21.5278 14.375C21.0755 14.3378 20.6488 14.5168 20.3559 14.8671C20.063 15.2177 19.9588 15.6738 20.07 16.1189L21.0032 19.857C21.3117 21.0924 22.36 22.0083 23.612 22.1361L33.4695 23.1422C33.9729 23.1936 34.4327 22.89 34.5906 22.4046C34.6927 22.0901 34.6486 21.7509 34.4694 21.4739C34.2901 21.197 34.0005 21.0205 33.6748 20.9901L25.3966 20.2146C24.8483 20.1632 24.4448 19.6713 24.4955 19.1157C24.5462 18.5603 25.0293 18.1513 25.5805 18.2029L33.8587 18.9783C34.7927 19.0659 35.6234 19.5718 36.1377 20.3665C36.6518 21.1609 36.7785 22.1344 36.4851 23.0366C36.0321 24.4295 34.7081 25.2996 33.2696 25.1523L23.412 24.1461C21.328 23.9335 19.5828 22.4088 19.0693 20.3523L18.1361 16.6142C17.865 15.5288 18.1193 14.4163 18.8336 13.5619C19.5479 12.7073 20.5893 12.2704 21.6911 12.3614L45 14.3008L41.3431 27.7268C40.7758 29.8093 38.9001 31.2334 36.7976 31.2336Z" fill="#634C9F"/>
<path d="M22.3716 33.7221C22.3716 35.2409 21.156 36.4721 19.6564 36.4721C18.157 36.4721 16.9414 35.2409 16.9414 33.7221C16.9414 32.2033 18.157 30.9723 19.6564 30.9723C21.156 30.9723 22.3716 32.2033 22.3716 33.7221Z" fill="#DC2626"/>
<path d="M35.8666 34.558C35.8666 35.4758 35.1322 36.2196 34.2263 36.2196C33.3203 36.2196 32.5859 35.4758 32.5859 34.558C32.5859 33.6405 33.3203 32.8967 34.2263 32.8967C35.1322 32.8967 35.8666 33.6405 35.8666 34.558Z" fill="#DC2626"/>
<path d="M19.5192 9.28602C19.5192 10.6188 18.4525 11.6991 17.1366 11.6991C15.8208 11.6991 14.7539 10.6188 14.7539 9.28602C14.7539 7.95329 15.8208 6.87275 17.1366 6.87275C18.4525 6.87275 19.5192 7.95329 19.5192 9.28602Z" fill="#F25321"/>
<path d="M23.9375 3.50557C23.9375 5.30719 22.4956 6.76755 20.7168 6.76755C18.9381 6.76755 17.4961 5.30719 17.4961 3.50557C17.4961 1.70412 18.9381 0.243602 20.7168 0.243602C22.4956 0.243602 23.9375 1.70412 23.9375 3.50557Z" fill="#634C9F"/>
<path d="M23.1557 8.4816C23.1557 9.11177 22.6514 9.62274 22.029 9.62274C21.4068 9.62274 20.9023 9.11177 20.9023 8.4816C20.9023 7.85143 21.4068 7.34045 22.029 7.34045C22.6514 7.34045 23.1557 7.85143 23.1557 8.4816Z" fill="#634C9F"/>
<path d="M30.1459 5.16121C30.1459 6.61786 28.9798 7.79874 27.5416 7.79874C26.1033 7.79874 24.9375 6.61786 24.9375 5.16121C24.9375 3.70439 26.1033 2.52352 27.5416 2.52352C28.9798 2.52352 30.1459 3.70439 30.1459 5.16121Z" fill="#F25321"/>
<path d="M32.649 10.1137C32.649 11.2993 31.7 12.2603 30.5296 12.2603C29.359 12.2603 28.4102 11.2993 28.4102 10.1137C28.4102 8.92827 29.359 7.96711 30.5296 7.96711C31.7 7.96711 32.649 8.92827 32.649 10.1137Z" fill="#F25321"/>
<path d="M41.6451 11.0538C41.6451 12.2394 40.6961 13.2004 39.5257 13.2004C38.3551 13.2004 37.4062 12.2394 37.4062 11.0538C37.4062 9.8684 38.3551 8.90723 39.5257 8.90723C40.6961 8.90723 41.6451 9.8684 41.6451 11.0538Z" fill="#634C9F"/>
<path d="M26.9118 10.4925C26.9118 11.2829 26.2793 11.9236 25.4989 11.9236C24.7186 11.9236 24.0859 11.2829 24.0859 10.4925C24.0859 9.70221 24.7186 9.06144 25.4989 9.06144C26.2793 9.06144 26.9118 9.70221 26.9118 10.4925Z" fill="#634C9F"/>
<path d="M35.4721 5.30146C35.4721 6.29327 34.6782 7.09735 33.6989 7.09735C32.7199 7.09735 31.9258 6.29327 31.9258 5.30146C31.9258 4.30965 32.7199 3.50556 33.6989 3.50556C34.6782 3.50556 35.4721 4.30965 35.4721 5.30146Z" fill="#634C9F"/>
<path d="M36.2204 11.0538C36.2204 11.8441 35.5879 12.4849 34.8075 12.4849C34.0272 12.4849 33.3945 11.8441 33.3945 11.0538C33.3945 10.2635 34.0272 9.62275 34.8075 9.62275C35.5879 9.62275 36.2204 10.2635 36.2204 11.0538Z" fill="#634C9F"/>
<path d="M37.8591 7.79873C37.8591 8.4651 37.3257 9.00537 36.6678 9.00537C36.0098 9.00537 35.4766 8.4651 35.4766 7.79873C35.4766 7.13236 36.0098 6.59227 36.6678 6.59227C37.3257 6.59227 37.8591 7.13236 37.8591 7.79873Z" fill="#F25321"/>
</svg>
