<svg width="24" height="16" viewBox="0 0 24 16" fill="none" xmlns="http://www.w3.org/2000/svg">
<g clip-path="url(#clip0_6497_337)">
<mask id="mask0_6497_337" style="mask-type:luminance" maskUnits="userSpaceOnUse" x="0" y="0" width="24" height="16">
<path d="M24 0.67041H0V15.4704H24V0.67041Z" fill="white"/>
</mask>
<g mask="url(#mask0_6497_337)">
<path d="M7.4 15.4704C11.4869 15.4704 14.8 12.1573 14.8 8.07042C14.8 3.98351 11.4869 0.67041 7.4 0.67041C3.31309 0.67041 0 3.98351 0 8.07042C0 12.1573 3.31309 15.4704 7.4 15.4704Z" fill="#DD3D31"/>
<path d="M16.5992 15.4704C20.6861 15.4704 23.9992 12.1573 23.9992 8.07042C23.9992 3.98351 20.6861 0.67041 16.5992 0.67041C12.5123 0.67041 9.19922 3.98351 9.19922 8.07042C9.19922 12.1573 12.5123 15.4704 16.5992 15.4704Z" fill="#EEB046"/>
<path fill-rule="evenodd" clip-rule="evenodd" d="M11.999 13.9705C15.199 11.4705 15.799 6.77051 13.299 3.57051C12.899 3.07051 12.499 2.67051 11.999 2.27051C8.79892 4.77051 8.19892 9.47051 10.699 12.6705C11.099 13.1705 11.499 13.5705 11.999 13.9705Z" fill="#EF7D2F"/>
</g>
</g>
<defs>
<clipPath id="clip0_6497_337">
<rect width="24" height="15" fill="white" transform="translate(0 0.470215)"/>
</clipPath>
</defs>
</svg>
