<svg width="53" height="15" viewBox="0 0 53 15" fill="none" xmlns="http://www.w3.org/2000/svg">
<mask id="mask0_6497_346" style="mask-type:luminance" maskUnits="userSpaceOnUse" x="0" y="0" width="53" height="15">
<path d="M52.5 0.0703125H0V14.0703H52.5V0.0703125Z" fill="white"/>
</mask>
<g mask="url(#mask0_6497_346)">
<path d="M6.639 0.182617H2.614C2.339 0.182617 2.1015 0.382608 2.064 0.657604L0.438998 10.9576C0.401498 11.1576 0.563998 11.3451 0.776498 11.3451H2.7015C2.9765 11.3451 3.214 11.1452 3.2515 10.8702L3.689 8.0951C3.7265 7.8201 3.964 7.62011 4.239 7.62011H5.5015C8.1515 7.62011 9.6765 6.34512 10.0765 3.79512C10.2515 2.68262 10.089 1.80761 9.564 1.19511C8.989 0.545114 7.9765 0.182617 6.639 0.182617ZM7.1015 3.95761C6.8765 5.39511 5.7765 5.39511 4.714 5.39511H4.1015L4.5265 2.70761C4.5515 2.54511 4.689 2.42012 4.8515 2.42012H5.1265C5.8515 2.42012 6.539 2.42011 6.889 2.83261C7.114 3.08261 7.1765 3.44511 7.1015 3.95761Z" fill="#283B82"/>
<path d="M18.6523 3.90771H16.7273C16.5648 3.90771 16.4273 4.03272 16.4023 4.19522L16.3148 4.73274L16.1773 4.53271C15.7648 3.93271 14.8273 3.72021 13.9023 3.72021C11.7773 3.72021 9.96476 5.33272 9.60226 7.59522C9.41476 8.72022 9.67726 9.79528 10.3148 10.5578C10.9023 11.2453 11.7398 11.5327 12.7398 11.5327C14.4523 11.5327 15.4023 10.4328 15.4023 10.4328L15.3148 10.9702C15.2773 11.1702 15.4398 11.3578 15.6398 11.3578H17.3773C17.6523 11.3578 17.8898 11.1578 17.9273 10.8828L18.9648 4.29524C19.0148 4.09524 18.8523 3.90771 18.6523 3.90771ZM15.9648 7.65772C15.7773 8.75772 14.9023 9.49528 13.7898 9.49528C13.2273 9.49528 12.7898 9.32022 12.5023 8.97022C12.2148 8.63272 12.1148 8.15773 12.2023 7.62023C12.3773 6.53273 13.2648 5.77023 14.3648 5.77023C14.9148 5.77023 15.3523 5.95774 15.6523 6.29524C15.9273 6.63274 16.0523 7.12022 15.9648 7.65772Z" fill="#283B82"/>
<path d="M28.9013 3.90771H26.9638C26.7763 3.90771 26.6013 3.99521 26.5013 4.15771L23.8388 8.08272L22.7138 4.30772C22.6388 4.07022 22.4263 3.90771 22.1763 3.90771H20.2763C20.0513 3.90771 19.8888 4.13271 19.9638 4.34521L22.0888 10.5952L20.0888 13.4202C19.9263 13.6452 20.0888 13.9452 20.3638 13.9452H22.3013C22.4888 13.9452 22.6513 13.8577 22.7638 13.7077L29.2013 4.42024C29.3263 4.20774 29.1638 3.90771 28.9013 3.90771Z" fill="#283B82"/>
<path d="M35.3031 0.182617H31.2781C31.0031 0.182617 30.7656 0.382608 30.7281 0.657604L29.1031 10.9576C29.0656 11.1576 29.2281 11.3451 29.4281 11.3451H31.5031C31.6906 11.3451 31.8531 11.2076 31.8906 11.0201L32.3531 8.0951C32.3906 7.8201 32.6281 7.62011 32.9031 7.62011H34.1781C36.8281 7.62011 38.3531 6.34512 38.7531 3.79512C38.9281 2.68262 38.7656 1.80761 38.2406 1.19511C37.6656 0.545114 36.6531 0.182617 35.3031 0.182617ZM35.7656 3.95761C35.5406 5.39511 34.4406 5.39511 33.3781 5.39511H32.7781L33.2031 2.70761C33.2281 2.54511 33.3656 2.42012 33.5281 2.42012H33.8031C34.5281 2.42012 35.2156 2.42011 35.5656 2.83261C35.7781 3.08261 35.8406 3.44511 35.7656 3.95761Z" fill="#469BDB"/>
<path d="M47.3124 3.90771H45.3874C45.2249 3.90771 45.0874 4.03272 45.0624 4.19522L44.9749 4.73274L44.8374 4.53271C44.4249 3.93271 43.4874 3.72021 42.5624 3.72021C40.4374 3.72021 38.6249 5.33272 38.2624 7.59522C38.0749 8.72022 38.3374 9.79528 38.9749 10.5578C39.5624 11.2453 40.3999 11.5327 41.3999 11.5327C43.1124 11.5327 44.0624 10.4328 44.0624 10.4328L43.9749 10.9702C43.9374 11.1702 44.0999 11.3578 44.3124 11.3578H46.0499C46.3249 11.3578 46.5624 11.1578 46.5999 10.8828L47.6374 4.29524C47.6749 4.09524 47.5124 3.90771 47.3124 3.90771ZM44.6249 7.65772C44.4374 8.75772 43.5624 9.49528 42.4499 9.49528C41.8874 9.49528 41.4499 9.32022 41.1624 8.97022C40.8749 8.63272 40.7749 8.15773 40.8624 7.62023C41.0374 6.53273 41.9249 5.77023 43.0249 5.77023C43.5749 5.77023 44.0124 5.95774 44.3124 6.29524C44.5999 6.63274 44.7124 7.12022 44.6249 7.65772Z" fill="#469BDB"/>
<path d="M49.5773 0.470189L47.9273 10.9702C47.8898 11.1702 48.0523 11.3577 48.2523 11.3577H49.9148C50.1898 11.3577 50.4273 11.1577 50.4648 10.8827L52.0898 0.582699C52.1273 0.382695 51.9648 0.195198 51.7648 0.195198H49.9023C49.7523 0.182698 49.6148 0.307692 49.5773 0.470189Z" fill="#469BDB"/>
</g>
</svg>
