<svg width="36" height="13" viewBox="0 0 36 13" fill="none" xmlns="http://www.w3.org/2000/svg">
<mask id="mask0_6497_332" style="mask-type:luminance" maskUnits="userSpaceOnUse" x="0" y="0" width="36" height="13">
<path d="M36 0.0703125H0V12.0703H36V0.0703125Z" fill="white"/>
</mask>
<g mask="url(#mask0_6497_332)">
<path d="M31.6008 4.37042L32.2008 7.57042H29.8008L31.0008 4.47042L31.2008 3.87041L31.3008 3.37041C31.3008 3.47041 31.6008 4.37042 31.6008 4.37042ZM8.90078 11.4704L13.3008 0.570415H10.3008L7.60078 8.07042L7.30078 6.47042L6.30078 1.47042C6.20078 0.870415 5.70078 0.470415 4.90078 0.470415H0.400781L0.300781 0.670415C1.50078 0.870415 2.40078 1.27041 3.30078 1.87041L5.90078 11.5704H9.00078L8.90078 11.4704ZM15.6008 11.4704L17.4008 0.570415H14.6008L12.8008 11.6704H15.6008V11.4704ZM25.7008 7.97042C25.7008 6.77042 24.9008 5.77042 23.3008 4.87042C22.1008 4.37042 21.5008 3.97042 21.5008 3.57042C21.5008 2.97042 22.1008 2.67042 23.3008 2.67042C24.0008 2.67042 24.7008 2.67042 25.3008 3.17042H25.7008L26.0008 0.670415C25.1008 0.27041 24.3008 0.17041 23.4008 0.17041C22.5008 0.17041 21.7008 0.37041 21.0008 0.670415C20.3008 0.970415 19.7008 1.37042 19.2008 1.97042C18.8008 2.57042 18.6008 3.17041 18.6008 3.87041C18.6008 5.07042 19.4008 6.07042 21.2008 6.97042C22.1008 7.47042 22.6008 7.8704 22.6008 8.2704C22.6008 8.9704 22.0008 9.47042 20.9008 9.47042C20.0008 9.47042 19.0008 9.27041 18.2008 8.87041L17.8008 8.67041L17.3008 11.0704C18.3008 11.4704 19.4008 11.7704 20.5008 11.7704C21.8008 11.8704 23.0008 11.4704 24.0008 10.8704C25.2008 10.0704 25.7008 9.07042 25.7008 7.97042ZM35.7008 11.4704L33.4008 0.570415H31.2008C30.5008 0.570415 30.0008 0.770415 29.8008 1.47042L25.5008 11.6704H28.5008L29.0008 10.0704H32.8008L33.2008 11.7704H35.8008V11.4704H35.7008Z" fill="url(#paint0_linear_6497_332)"/>
</g>
<defs>
<linearGradient id="paint0_linear_6497_332" x1="1.58268" y1="5.97882" x2="35.2457" y2="5.97882" gradientUnits="userSpaceOnUse">
<stop stop-color="#2C3572"/>
<stop offset="1" stop-color="#3C62AB"/>
</linearGradient>
</defs>
</svg>
